<?xml version="1.0" encoding="UTF-8" standalone="no"?>
<!-- Created with Inkscape (http://www.inkscape.org/) -->

<svg
   xmlns:dc="http://purl.org/dc/elements/1.1/"
   xmlns:cc="http://creativecommons.org/ns#"
   xmlns:rdf="http://www.w3.org/1999/02/22-rdf-syntax-ns#"
   xmlns:svg="http://www.w3.org/2000/svg"
   xmlns="http://www.w3.org/2000/svg"
   xmlns:sodipodi="http://sodipodi.sourceforge.net/DTD/sodipodi-0.dtd"
   xmlns:inkscape="http://www.inkscape.org/namespaces/inkscape"
   width="3.521234mm"
   height="3.52123mm"
   viewBox="0 0 3.521234 3.52123"
   version="1.1"
   id="svg1423"
   inkscape:version="0.92.4 (5da689c313, 2019-01-14)"
   sodipodi:docname="icon.svg">
  <defs
     id="defs1417" />
  <sodipodi:namedview
     id="base"
     pagecolor="#ffffff"
     bordercolor="#666666"
     borderopacity="1.0"
     inkscape:pageopacity="0.0"
     inkscape:pageshadow="2"
     inkscape:zoom="22.4"
     inkscape:cx="4.7143655"
     inkscape:cy="7.4367534"
     inkscape:document-units="mm"
     inkscape:current-layer="svg1423"
     showgrid="false"
     fit-margin-top="0"
     fit-margin-left="0"
     fit-margin-right="0"
     fit-margin-bottom="0"
     inkscape:window-width="1366"
     inkscape:window-height="705"
     inkscape:window-x="1912"
     inkscape:window-y="305"
     inkscape:window-maximized="1" />
  <metadata
     id="metadata1420">
    <rdf:RDF>
      <cc:Work
         rdf:about="">
        <dc:format>image/svg+xml</dc:format>
        <dc:type
           rdf:resource="http://purl.org/dc/dcmitype/StillImage" />
        <dc:title></dc:title>
      </cc:Work>
    </rdf:RDF>
  </metadata>
  <ellipse
     style="opacity:1;vector-effect:none;fill:#ffffff;fill-opacity:1;fill-rule:nonzero;stroke:none;stroke-width:0.26458332;stroke-linecap:square;stroke-linejoin:round;stroke-miterlimit:10;stroke-dasharray:none;stroke-dashoffset:0;stroke-opacity:1;paint-order:normal"
     id="path1979"
     cx="1.760617"
     cy="1.760615"
     rx="1.4240453"
     ry="1.4532781" />
  <g
     inkscape:label="Ebene 1"
     inkscape:groupmode="layer"
     id="layer1"
     transform="translate(-64.00724,-114.56677)">
    <path
       id="path1066-3"
       d="m 65.767857,115.09503 c -0.678754,0 -1.23235,0.55359 -1.23235,1.23235 0,0.6826 0.553596,1.23234 1.23235,1.23234 0.678754,0 1.23235,-0.54974 1.23235,-1.23234 0,-0.67876 -0.553596,-1.23235 -1.23235,-1.23235 z m -0.0077,0.14778 0.109757,0.0457 -0.05295,0.12516 c -0.06065,0.0303 -0.121309,0.0491 -0.185814,0.0722 l -0.03803,0.0684 -0.03418,0.0154 -0.0491,-0.0948 0.03418,-0.038 v -0.0385 l -0.09484,-0.0684 0.03033,-0.0265 0.155488,-0.0457 z m -0.295571,0.008 0.0154,0.0265 c -0.03033,0.0116 -0.0568,0.0226 -0.08713,0.0342 l -0.04573,0.0116 -0.01878,0.0188 -0.05295,-0.008 0.01156,-0.0154 0.01878,-0.008 0.03369,-0.0183 0.04188,-0.004 0.02648,-0.0303 z m -0.25032,0.11746 0.02262,0.038 0.0154,-0.0303 0.03803,-0.008 0.0039,0.0226 0.07943,0.008 0.01878,0.0457 0.0491,0.0187 -0.04573,0.0342 c -0.02647,-0.0188 -0.0568,-0.0342 -0.08327,-0.0529 l -0.03803,-0.0188 c -0.01878,0.0116 -0.03418,0.0265 -0.05295,0.038 l -0.02647,0.0491 h -0.03803 l 0.01156,-0.038 -0.04573,0.0457 -0.102537,0.0607 0.01156,0.0419 0.07943,0.0342 0.01156,0.0529 0.03033,-0.0645 0.04188,-0.0154 -0.0039,-0.0303 0.0491,-0.0794 0.0568,0.0303 -0.0077,0.038 0.0491,-0.0188 0.02262,0.0457 -0.0077,0.0303 0.03033,0.0116 0.02648,0.0226 -0.01156,0.0265 -0.07221,0.0265 h -0.0491 l -0.07221,0.0303 h 0.113607 l -0.03803,0.0568 -0.07221,0.0154 -0.03418,0.0491 -0.06065,0.0226 -0.02648,0.0722 -0.07943,0.0684 -0.01156,0.091 -0.04573,-0.0568 -0.0645,-0.0116 -0.01156,0.0303 h -0.05295 l -0.05488,0.0448 -0.01109,0.0568 0.0039,0.053 0.04573,0.0226 0.03032,-0.0116 0.03033,-0.0419 h 0.03033 c -0.0039,0.0342 -0.0077,0.0684 -0.01156,0.10254 l 0.05295,-0.004 v 0.0491 l 0.0154,0.0491 c 0.01879,0.0116 0.0491,0.0116 0.07221,0.0188 v -0.0116 l 0.07221,-0.0683 0.07221,0.0529 0.08328,-0.0116 0.03418,0.091 0.06066,0.0116 0.03418,0.0684 c 0.06836,0.0342 0.136713,0.0722 0.204589,0.10639 l -0.0077,0.0683 -0.05295,0.0722 0.0077,0.0987 -0.03033,0.0722 -0.0645,0.0154 -0.03033,0.0419 0.01156,0.0303 -0.03803,0.10254 -0.05295,0.0226 -0.0154,0.0303 -0.03033,0.0342 0.01156,0.0226 c 0,0 -0.01156,0.008 -0.01878,0.0116 -0.0077,0.008 -0.140084,-0.0645 -0.143936,-0.0761 -0.0039,-0.0116 0,-0.0116 0,-0.0116 l 0.03033,-0.11361 -0.03418,-0.0529 0.0039,-0.0987 -0.03033,-0.0457 -0.07221,-0.0684 -0.07606,-0.13672 0.02262,-0.0722 -0.01156,-0.0188 0.03033,-0.038 0.03032,-0.091 v -0.0116 l -0.02647,-0.0116 -0.03418,0.004 -0.0568,-0.0419 -0.03803,-0.0491 -0.08713,-0.0226 -0.09098,-0.053 c 0,0 -0.03803,-0.0568 -0.03803,-0.0684 0.0491,-0.42459 0.280646,-0.65613 0.394256,-0.76204 0.0077,-0.004 0.04573,-0.0116 0.04573,-0.0116 l 0.01879,-0.053 0.03418,0.004 0.02648,0.0154 -0.0039,0.0529 0.0077,-0.0116 0.03418,-0.0303 -0.0039,-0.0491 z m 1.07301,0.0342 0.05295,0.0188 0.09868,0.0188 -0.02262,0.0303 h -0.0568 l 0.0568,0.0568 0.04188,-0.0491 0.01156,-0.0226 c 0,0 0.15934,0.14394 0.25032,0.30328 0.09098,0.15934 0.136715,0.34515 0.136715,0.38318 l -0.02648,0.0342 c -0.01876,-0.0226 -0.04188,-0.0419 -0.0645,-0.0607 l -0.0491,0.008 -0.03803,-0.0529 v 0.0645 l 0.03418,0.0265 0.03033,0.0303 0.03033,-0.0419 c 0.0077,0.0154 0.0154,0.0342 0.02262,0.0491 v 0.0491 l -0.03418,0.0419 -0.07221,0.0491 -0.0491,0.0491 c 0.02262,0 0.04573,-0.008 0.07221,-0.0116 v 0.0342 l -0.05295,0.12517 -0.04573,0.0491 -0.03803,0.0794 v 0.13671 l 0.01156,0.0529 -0.01879,0.0226 -0.04188,0.0303 -0.0491,0.038 0.03803,0.0457 -0.05295,0.0491 0.01156,0.0303 -0.08328,0.091 h -0.05295 l -0.0491,0.0303 h -0.02648 v -0.0419 l -0.01156,-0.0722 c -0.0154,-0.0491 -0.03418,-0.0987 -0.05295,-0.14393 0,-0.0342 0,-0.0684 0.0039,-0.10254 l 0.01878,-0.0491 -0.03033,-0.0568 0.0039,-0.0761 -0.03803,-0.0491 0.01878,-0.0607 -0.03418,-0.038 h -0.05295 l -0.01878,-0.0188 -0.05295,0.0303 -0.02648,-0.0226 -0.0491,0.0457 c -0.03417,-0.0419 -0.0722,-0.0833 -0.109749,-0.12131 l -0.04573,-0.0987 0.03803,-0.0568 -0.01878,-0.0265 0.04573,-0.10639 c 0.03803,-0.0457 0.07943,-0.091 0.117459,-0.13671 l 0.07221,-0.0188 0.07943,-0.0116 0.05295,0.0154 0.07606,0.0761 0.02647,-0.0303 0.04188,-0.0116 0.07221,0.0265 h 0.05295 l 0.03803,-0.0342 0.0154,-0.0226 -0.03418,-0.0226 -0.0674,-0.003 c -0.01878,-0.0226 -0.03418,-0.0491 -0.05295,-0.0722 l -0.01878,0.008 -0.01156,0.0645 -0.03803,-0.0457 -0.0077,-0.0491 -0.04573,-0.0303 h -0.0154 l 0.04573,0.0491 -0.0154,0.0419 -0.03418,0.0116 0.01878,-0.0419 -0.03418,-0.0226 -0.03803,-0.0342 -0.06066,0.0116 -0.0154,0.0188 -0.03418,0.0265 -0.01878,0.0529 -0.05295,0.0265 -0.02262,-0.0265 h -0.02647 v -0.0871 l 0.05295,-0.0265 h 0.04573 l -0.01156,-0.0342 -0.03418,-0.0342 0.0568,-0.0116 0.03033,-0.0342 0.01156,-0.0226 -0.03033,0.0303 -0.0491,0.0116 0.01156,-0.0568 v -0.0419 l -0.0154,-0.0188 v -0.0265 h 0.02262 c 0.01156,0.0265 0.02648,0.0491 0.03418,0.0722 l 0.03033,0.0303 0.0154,-0.0188 h 0.04573 l -0.01156,-0.0342 0.03033,-0.0154 v 0.038 l 0.06066,0.0116 0.0645,-0.053 0.0039,-0.0265 0.05295,-0.038 c -0.01878,0.004 -0.03803,0.004 -0.0568,0.0116 v -0.0424 l 0.01879,-0.0491 h -0.01879 l -0.05295,0.0457 -0.01156,0.0226 0.01156,0.0303 -0.01878,0.0568 -0.03033,-0.0188 -0.03033,-0.0303 -0.04188,0.0303 -0.01878,-0.0761 0.07943,-0.0529 v -0.0265 l 0.0491,-0.0303 z m -0.413031,0.0607 0.02648,0.0303 -0.05295,0.0342 -0.03033,-0.0188 0.0039,-0.0303 0.0154,0.004 z m -0.553593,0.0116 0.04188,0.0188 v 0.0342 h -0.03418 l -0.03803,-0.0303 z m 0.644576,0.16656 0.0154,0.0419 -0.03466,0.0188 -0.01156,-0.0529 z m -0.580552,0.0871 0.04188,0.0265 -0.03033,0.038 z"
       inkscape:connector-curvature="0"
       style="font-style:normal;font-weight:normal;font-size:18.66666603px;line-height:1.25;font-family:sans-serif;text-align:center;letter-spacing:0px;word-spacing:0px;text-anchor:middle;display:inline;opacity:0.5;fill:#0d6efd;fill-opacity:1;stroke:none;stroke-width:0.26458332"
       inkscape:label="globe icon" />
    <path
       style="font-style:normal;font-weight:normal;font-size:18.66666603px;line-height:1.25;font-family:sans-serif;text-align:center;letter-spacing:0px;word-spacing:0px;text-anchor:middle;display:inline;opacity:1;vector-effect:none;fill:#0d6efd;fill-opacity:1;fill-rule:nonzero;stroke:none;stroke-width:1;stroke-linecap:round;stroke-linejoin:miter;stroke-miterlimit:4;stroke-dasharray:none;stroke-dashoffset:0;stroke-opacity:1;paint-order:normal"
       d="m 65.767857,114.56677 c -0.972389,-7e-5 -1.76068,0.78822 -1.760617,1.76061 -6.3e-5,0.97239 0.788228,1.76068 1.760617,1.76062 0.972389,6e-5 1.76068,-0.78823 1.760617,-1.76062 6.3e-5,-0.97239 -0.788228,-1.76068 -1.760617,-1.76061 z m 0,0.52813 c 0.680672,-5e-5 1.232527,0.55181 1.232482,1.23248 4.5e-5,0.68067 -0.55181,1.23253 -1.232482,1.23248 -0.680672,5e-5 -1.232527,-0.55181 -1.232482,-1.23248 -4.5e-5,-0.68067 0.55181,-1.23253 1.232482,-1.23248 z"
       id="path1078-4"
       inkscape:connector-curvature="0"
       inkscape:label="O" />
  </g>
</svg>
